<svg width="20" height="12" viewBox="0 0 20 12" fill="none" xmlns="http://www.w3.org/2000/svg">
<path d="M0.899853 9.42491L9.29985 0.999914C9.39985 0.899914 9.50819 0.829248 9.62485 0.787914C9.74152 0.745914 9.86652 0.724915 9.99985 0.724915C10.1332 0.724915 10.2582 0.745914 10.3749 0.787914C10.4915 0.829248 10.5999 0.899914 10.6999 0.999914L19.1249 9.42491C19.3582 9.65825 19.4749 9.94991 19.4749 10.2999C19.4749 10.6499 19.3499 10.9499 19.0999 11.1999C18.8499 11.4499 18.5582 11.5749 18.2249 11.5749C17.8915 11.5749 17.5999 11.4499 17.3499 11.1999L9.99985 3.84991L2.64985 11.1999C2.41652 11.4332 2.12919 11.5499 1.78785 11.5499C1.44585 11.5499 1.14985 11.4249 0.899853 11.1749C0.649853 10.9249 0.524853 10.6332 0.524853 10.2999C0.524853 9.96658 0.649853 9.67491 0.899853 9.42491Z" fill="#F5F5F5"/>
</svg>
