<svg width="20" height="12" viewBox="0 0 20 12" fill="none" xmlns="http://www.w3.org/2000/svg">
<path d="M19.0999 2.87495L10.6999 11.3C10.5999 11.4 10.4916 11.4706 10.3749 11.512C10.2582 11.554 10.1332 11.575 9.9999 11.575C9.86657 11.575 9.74157 11.554 9.6249 11.512C9.50824 11.4706 9.3999 11.4 9.2999 11.3L0.874902 2.87495C0.641569 2.64162 0.524902 2.34995 0.524902 1.99995C0.524902 1.64995 0.649902 1.34995 0.899902 1.09995C1.1499 0.849952 1.44157 0.724952 1.7749 0.724952C2.10824 0.724952 2.3999 0.849952 2.6499 1.09995L9.9999 8.44995L17.3499 1.09995C17.5832 0.866618 17.8706 0.749951 18.2119 0.749951C18.5539 0.749951 18.8499 0.874951 19.0999 1.12495C19.3499 1.37495 19.4749 1.66662 19.4749 1.99995C19.4749 2.33328 19.3499 2.62495 19.0999 2.87495Z" fill="#F5F5F5"/>
</svg>
