<svg width="8" height="14" viewBox="0 0 8 14" fill="none" xmlns="http://www.w3.org/2000/svg">
<path d="M1.9168 1.11667L7.53346 6.71667C7.60013 6.78333 7.64724 6.85556 7.6748 6.93333C7.7028 7.01111 7.7168 7.09444 7.7168 7.18333C7.7168 7.27222 7.7028 7.35556 7.6748 7.43333C7.64724 7.51111 7.60013 7.58333 7.53346 7.65L1.9168 13.2667C1.76124 13.4222 1.5668 13.5 1.33346 13.5C1.10013 13.5 0.90013 13.4167 0.733464 13.25C0.566797 13.0833 0.483464 12.8889 0.483464 12.6667C0.483464 12.4444 0.566797 12.25 0.733464 12.0833L5.63346 7.18333L0.733464 2.28333C0.577908 2.12778 0.50013 1.93622 0.50013 1.70867C0.50013 1.48067 0.583464 1.28333 0.75013 1.11667C0.916797 0.949999 1.11124 0.866666 1.33346 0.866666C1.55569 0.866666 1.75013 0.949999 1.9168 1.11667Z" fill="#929292"/>
</svg>
