<svg width="24" height="24" viewBox="0 0 24 24" fill="none" xmlns="http://www.w3.org/2000/svg">
<path d="M6.93994 4.001C6.93968 4.53143 6.72871 5.04004 6.35345 5.41492C5.97819 5.78981 5.46937 6.00027 4.93894 6C4.40851 5.99974 3.89991 5.78877 3.52502 5.41351C3.15014 5.03825 2.93968 4.52943 2.93994 3.999C2.94021 3.46857 3.15117 2.95996 3.52644 2.58508C3.9017 2.21019 4.41051 1.99974 4.94094 2C5.47137 2.00027 5.97998 2.21123 6.35486 2.58649C6.72975 2.96175 6.94021 3.47057 6.93994 4.001ZM6.99994 7.481H2.99994V20.001H6.99994V7.481ZM13.3199 7.481H9.33994V20.001H13.2799V13.431C13.2799 9.771 18.0499 9.431 18.0499 13.431V20.001H21.9999V12.071C21.9999 5.901 14.9399 6.131 13.2799 9.161L13.3199 7.481Z" fill="#F5F5F5"/>
</svg>
