<svg width="64" height="64" viewBox="0 0 64 64" fill="none" xmlns="http://www.w3.org/2000/svg">
<g clip-path="url(#clip0_345_149)">
<path d="M23.1188 33.3655V44.5529C23.1188 45.1768 22.6065 45.6897 21.9835 45.6897C21.7758 45.6897 21.582 45.6342 21.402 45.5233L18.4947 43.7766C17.6364 43.2637 17.1103 42.3348 17.1103 41.3367V36.5817C17.1103 35.5836 16.5842 34.6548 15.7258 34.1418L10.2712 30.8425C9.41281 30.3295 8.88672 29.4007 8.88672 28.4026V3.04722C8.88672 2.42339 9.38512 1.91046 10.022 1.91046C10.2296 1.91046 10.4511 1.96591 10.6311 2.07682L12.6247 3.32448C13.4554 3.85128 13.9676 4.76623 13.9676 5.7505V24.618C13.9676 25.6161 14.4937 26.5449 15.352 27.0579L21.762 30.9118C22.5927 31.4386 23.1188 32.3674 23.1188 33.3655Z" stroke="#F5F5F5" stroke-width="2" stroke-miterlimit="10"/>
<path d="M29.3486 13.3197L18.2177 6.62388C17.6777 6.30503 16.9855 6.47138 16.6671 7.01204C16.5564 7.19226 16.501 7.38634 16.501 7.59428V21.0552C16.501 22.0533 17.0271 22.9822 17.8854 23.4951L24.2815 27.349C25.1399 27.8619 25.666 28.7907 25.666 29.7889V58.2773C25.666 59.2754 26.192 60.2042 27.0504 60.7171L29.0163 61.8955C29.5562 62.2143 30.2485 62.048 30.5669 61.5073C30.6776 61.3271 30.733 61.133 30.733 60.9251V15.7457C30.733 14.7753 30.2069 13.8465 29.3486 13.3197Z" stroke="#F5F5F5" stroke-width="2" stroke-miterlimit="10"/>
<path d="M40.8809 33.3655V44.5529C40.8809 45.1768 41.3931 45.6897 42.0161 45.6897C42.2238 45.6897 42.4176 45.6342 42.5976 45.5233L45.5049 43.7766C46.3632 43.2637 46.8893 42.3348 46.8893 41.3367V36.5956C46.8893 35.5975 47.4154 34.6686 48.2738 34.1557L53.7285 30.8702C54.5868 30.3573 55.1129 29.4284 55.1129 28.4303V3.04722C55.1129 2.42339 54.6145 1.91046 53.9777 1.91046C53.7561 1.91046 53.5485 1.96591 53.3685 2.07682L51.3749 3.32448C50.5442 3.85128 50.032 4.76623 50.032 5.7505V24.618C50.032 25.6161 49.5059 26.5449 48.6476 27.0579L42.2515 30.9118C41.4208 31.4386 40.8809 32.3674 40.8809 33.3655Z" stroke="#F5F5F5" stroke-width="2" stroke-miterlimit="10"/>
<path d="M34.651 13.3197L45.7819 6.62388C46.3219 6.29117 47.0141 6.47138 47.3463 6.99818C47.4571 7.1784 47.5125 7.38634 47.5125 7.59428V21.0552C47.5125 22.0534 46.9864 22.9822 46.128 23.4951L39.7319 27.349C38.8736 27.8619 38.3475 28.7908 38.3475 29.7889V58.2773C38.3475 59.2754 37.8214 60.2042 36.9631 60.7171L34.9972 61.8955C34.4572 62.2143 33.765 62.048 33.4466 61.5073C33.3358 61.3271 33.2804 61.133 33.2804 60.9251L33.2666 15.7734C33.2666 14.7753 33.7927 13.8465 34.651 13.3197Z" stroke="#F5F5F5" stroke-width="2" stroke-miterlimit="10"/>
</g>
<defs>
<clipPath id="clip0_345_149">
<rect width="50" height="64" fill="white" transform="translate(7)"/>
</clipPath>
</defs>
</svg>
