<svg width="24" height="24" viewBox="0 0 24 24" fill="none" xmlns="http://www.w3.org/2000/svg">
<path d="M23 12.4267C23 12.3692 23 12.3038 22.9975 12.2279C22.9951 12.016 22.9902 11.7779 22.9853 11.5242C22.9656 10.7942 22.9312 10.0669 22.8772 9.3815C22.8036 8.43706 22.6955 7.64958 22.5482 7.05833C22.3927 6.4413 22.088 5.87855 21.6645 5.42634C21.2409 4.97412 20.7134 4.64828 20.1346 4.48138C19.4397 4.28255 18.0795 4.15959 16.1643 4.08372C15.2533 4.04709 14.2786 4.02355 13.3038 4.01046C12.9625 4.00523 12.6458 4.00262 12.3609 4H11.6391C11.3542 4.00262 11.0375 4.00523 10.6962 4.01046C9.72143 4.02355 8.74665 4.04709 7.83571 4.08372C5.92054 4.1622 4.55781 4.28516 3.8654 4.48138C3.28643 4.64787 2.7587 4.97358 2.33509 5.42585C1.91147 5.87813 1.60687 6.44109 1.45179 7.05833C1.30201 7.64958 1.19643 8.43706 1.12277 9.3815C1.06875 10.0669 1.03437 10.7942 1.01473 11.5242C1.00737 11.7779 1.00491 12.016 1.00246 12.2279C1.00246 12.3038 1 12.3692 1 12.4267V12.5733C1 12.6308 1 12.6962 1.00246 12.7721C1.00491 12.984 1.00982 13.2221 1.01473 13.4758C1.03437 14.2058 1.06875 14.9331 1.12277 15.6185C1.19643 16.5629 1.30446 17.3504 1.45179 17.9417C1.76607 19.1948 2.68929 20.1837 3.8654 20.5186C4.55781 20.7175 5.92054 20.8404 7.83571 20.9163C8.74665 20.9529 9.72143 20.9765 10.6962 20.9895C11.0375 20.9948 11.3542 20.9974 11.6391 21H12.3609C12.6458 20.9974 12.9625 20.9948 13.3038 20.9895C14.2786 20.9765 15.2533 20.9529 16.1643 20.9163C18.0795 20.8378 19.4422 20.7148 20.1346 20.5186C21.3107 20.1837 22.2339 19.1974 22.5482 17.9417C22.698 17.3504 22.8036 16.5629 22.8772 15.6185C22.9312 14.9331 22.9656 14.2058 22.9853 13.4758C22.9926 13.2221 22.9951 12.984 22.9975 12.7721C22.9975 12.6962 23 12.6308 23 12.5733V12.4267ZM21.2321 12.5628C21.2321 12.6177 21.2321 12.6779 21.2297 12.7485C21.2272 12.9526 21.2223 13.1776 21.2174 13.4209C21.2002 14.1168 21.1658 14.8127 21.1143 15.4589C21.048 16.3013 20.9547 16.992 20.8393 17.4551C20.6871 18.0594 20.2402 18.5382 19.6754 18.6978C19.1598 18.8443 17.8609 18.962 16.0955 19.0326C15.2018 19.0693 14.2393 19.0928 13.2792 19.1059C12.9429 19.1111 12.631 19.1137 12.3511 19.1137H11.6489L10.7208 19.1059C9.76071 19.0928 8.80067 19.0693 7.90446 19.0326C6.13906 18.9594 4.83772 18.8443 4.32455 18.6978C3.75982 18.5356 3.31295 18.0594 3.16071 17.4551C3.04531 16.992 2.95201 16.3013 2.88571 15.4589C2.83415 14.8127 2.80223 14.1168 2.78259 13.4209C2.77522 13.1776 2.77277 12.95 2.77031 12.7485C2.77031 12.6779 2.76786 12.6151 2.76786 12.5628V12.4372C2.76786 12.3823 2.76786 12.3221 2.77031 12.2515C2.77277 12.0474 2.77768 11.8224 2.78259 11.5791C2.79978 10.8832 2.83415 10.1873 2.88571 9.54109C2.95201 8.69868 3.04531 8.008 3.16071 7.54494C3.31295 6.9406 3.75982 6.46183 4.32455 6.30225C4.84018 6.15574 6.13906 6.03801 7.90446 5.96737C8.79821 5.93075 9.76071 5.9072 10.7208 5.89412C11.0571 5.88889 11.369 5.88627 11.6489 5.88627H12.3511L13.2792 5.89412C14.2393 5.9072 15.1993 5.93075 16.0955 5.96737C17.8609 6.04063 19.1623 6.15574 19.6754 6.30225C20.2402 6.46445 20.6871 6.9406 20.8393 7.54494C20.9547 8.008 21.048 8.69868 21.1143 9.54109C21.1658 10.1873 21.1978 10.8832 21.2174 11.5791C21.2248 11.8224 21.2272 12.05 21.2297 12.2515C21.2297 12.3221 21.2321 12.3849 21.2321 12.4372V12.5628ZM9.81473 16.0057L15.5112 12.4738L9.81473 8.99431V16.0057Z" fill="#F5F5F5"/>
</svg>
